# xmcd
#
# Track frame offsets: 
#        183
#        16658
#        43333
#        60733
#        80345
#        93645
#        109545
#        134470
#        158845
#        173945
#        198758
#        219333
#        239908
#        257783
#
# Disc length: 3930 seconds
#
# Revision: 5
# Processed by: cddbd v1.5.2PL0 Copyright (c) Steve Scherf et al.
# Submitted via: ExactAudioCopy v1.3
#
DISCID=c00f580e
DTITLE=Peter Green - The Clown
DYEAR=1977
DGENRE=Blues
TTITLE0=Proud Pinto
TTITLE1=The Clown
TTITLE2=in The Skies
TTITLE3=Rubbing My Eyes
TTITLE4=Bandit
TTITLE5=Promised Land
TTITLE6=Last Train To San Antrone
TTITLE7=Lost My Love
TTITLE8=Momma Don't Cha Cry
TTITLE9=One WOman Love
TTITLE10=Tribal Dance
TTITLE11=Just For You
TTITLE12=Black Woman
TTITLE13=Funky Jam
EXTD=
EXTT0=
EXTT1=
EXTT2=
EXTT3=
EXTT4=
EXTT5=
EXTT6=
EXTT7=
EXTT8=
EXTT9=
EXTT10=
EXTT11=
EXTT12=
EXTT13=
PLAYORDER=
